<svg xmlns="http://www.w3.org/2000/svg" width="393.78" height="371.162" viewBox="0 0 393.78 371.162"><path d="M122.121-6.662c12.537,38.536-4.633,85.739-35.431,105.607-30.934,19.868-75.632,12.667-108.883-10.8C-55.445,64.809-77.385,25.073-67.573-9.862S-16.2-75.067,25.639-75.2,109.72-45.2,122.121-6.662Z" transform="translate(69.929 75.2)" fill="rgba(0,255,206,0.78)"/><path d="M48.1-13.1C57.7,14.1,57.9,47,43,57.3,28.1,67.7-1.7,55.6-21.8,38.9-41.8,22.2-52,1-46.7-20.1c5.2-21.2,26-42.3,45.9-42C19.2-61.9,38.4-40.3,48.1-13.1Z" transform="translate(299.16 106.918)" fill="rgba(214,53,244,0.85)"/><path d="M226.544,45.178c20.274,54.741,12.217,117.465-27.812,143.467C158.7,214.875,86.442,204.383,26.4,168.573S-81.472,71.864-65.357,22.141C-49.5-27.354,30.038-65.445,93.98-61.111,157.923-56.549,206.27-9.563,226.544,45.178Z" transform="translate(156.515 167.896)" fill="rgba(0,88,255,0.84)"/></svg>