<svg xmlns="http://www.w3.org/2000/svg" width="503.715" height="732.804" viewBox="0 0 503.715 732.804"><path d="M129.364,21.1c11.587,45.1-.535,88.058-30.838,111.409S19.738,159.6-14.844,136.25C-49.6,112.9-70.459,62.453-57.624,15.572c12.834-47.059,59.18-90.731,100-88.949C83.018-71.416,117.956-24,129.364,21.1Z" transform="translate(352.673 421.15)" fill="rgba(0,88,255,0.58)"/><circle cx="53.49" cy="53.49" r="53.49" transform="matrix(0.985, 0.174, -0.174, 0.985, 398.361, 608.873)" fill="rgba(123,0,108,0.73)" style="mix-blend-mode:multiply;isolation:isolate"/><path d="M1105.771,338.543c98.8-44.3,191.061-32.337,235.361,66.437,44.287,98.81.088,214.813-98.721,259.1s-214.813.088-259.1-98.721c-44.22-98.8,23.686-182.542,122.46-226.816Z" transform="translate(-969.529 -37.201)" fill="#00d39c" style="mix-blend-mode:multiply;isolation:isolate"/><ellipse cx="74.381" cy="76.433" rx="74.381" ry="76.433" transform="translate(120.019)" fill="#9b8fef" style="mix-blend-mode:multiply;isolation:isolate"/></svg>