<svg xmlns="http://www.w3.org/2000/svg" width="410.281" height="761.31" viewBox="0 0 410.281 761.31"><path d="M45.6-20.4C52.1,4.9,45.3,29,28.3,42.1s-44.2,15.2-63.6,2.1c-19.5-13.1-31.2-41.4-24-67.7,7.2-26.4,33.2-50.9,56.1-49.9C19.6-72.3,39.2-45.7,45.6-20.4Z" transform="translate(217.052 497.558)" fill="rgba(0,88,255,0.58)"/><circle cx="88.24" cy="88.24" r="88.24" transform="translate(0 584.83)" fill="#00d39c" style="mix-blend-mode:multiply;isolation:isolate"/><circle cx="53.49" cy="53.49" r="53.49" transform="matrix(0.985, 0.174, -0.174, 0.985, 62.171, 295.303)" fill="#9b8fef" style="mix-blend-mode:multiply;isolation:isolate"/><path d="M1020.55,323.19c37-16.59,71.55-12.11,88.14,24.88a73.422,73.422,0,1,1-134,60.06c-16.56-37,8.87-68.36,45.86-84.94Z" transform="translate(-850.049 22.677)" fill="#00d39c" style="mix-blend-mode:multiply;isolation:isolate"/><circle cx="105.56" cy="105.56" r="105.56" fill="#9b8fef" style="mix-blend-mode:multiply;isolation:isolate"/><circle cx="30.04" cy="30.04" r="30.04" transform="translate(350.201 673.07)" fill="rgba(187,0,211,0.62)" style="mix-blend-mode:multiply;isolation:isolate"/><path d="M56.1-18.4c5.2,16.3-9.7,39-29.7,53.1C6.4,48.9-18.7,54.5-34.1,44s-21.3-37.2-14-56.3C-40.8-31.5-20.4-43,2.5-43.9,25.4-44.7,50.9-34.7,56.1-18.4Z" transform="translate(189.315 678.724)" fill="rgba(255,0,102,0.75)"/></svg>