<svg xmlns="http://www.w3.org/2000/svg" width="497.89" height="782.148" viewBox="0 0 497.89 782.148"><circle cx="88.24" cy="88.24" r="88.24" transform="translate(288.366 359.367)" fill="#00d39c" style="mix-blend-mode:multiply;isolation:isolate"/><circle cx="53.49" cy="53.49" r="53.49" transform="matrix(0.985, 0.174, -0.174, 0.985, 380.976, 0)" fill="#9b8fef" style="mix-blend-mode:multiply;isolation:isolate"/><path d="M1020.55,323.19c37-16.59,71.55-12.11,88.14,24.88a73.422,73.422,0,1,1-134,60.06c-16.56-37,8.87-68.36,45.86-84.94Z" transform="translate(-915.964 -124.626)" fill="#00d39c" style="mix-blend-mode:multiply;isolation:isolate"/><path d="M343.284,38.545C362.4,91.181,307.625,164.484,234.1,210.016c-73.524,45.855-165.8,63.938-222.409,30.032s-78.3-120.127-51.467-181.8c26.836-62,101.83-99.137,186.015-102.043C230.425-46.384,324.168-14.092,343.284,38.545Z" transform="translate(51.211 316.77)" fill="rgba(255,0,102,0.75)"/><circle cx="30.04" cy="30.04" r="30.04" transform="translate(258.326 171.676)" fill="rgba(162,211,0,0.62)" style="mix-blend-mode:multiply;isolation:isolate"/><path d="M45.6-20.4C52.1,4.9,45.3,29,28.3,42.1s-44.2,15.2-63.6,2.1c-19.5-13.1-31.2-41.4-24-67.7,7.2-26.4,33.2-50.9,56.1-49.9C19.6-72.3,39.2-45.7,45.6-20.4Z" transform="translate(449.861 245.105)" fill="rgba(0,88,255,0.58)"/><path d="M126.233,8.489c12.383,39.078-3.514,86.1-32.464,104.318S22.649,120.589-6.971,98.07C-36.757,75.55-54.161,41.109-45.626,7.164-37.092-26.615-2.452-59.9,35.2-60.891,73.018-61.884,113.682-30.589,126.233,8.489Z" transform="translate(321.06 557.167)" fill="rgba(91,96,206,0.8)"/><path d="M53.1-16.9c7.1,21.4-1.8,48.4-20.9,62.6C13,60-16.4,61.5-36.9,47.5c-20.4-14.1-31.9-43.8-24.2-66,7.6-22.1,34.4-36.7,59.2-36.1C23-54,46.1-38.2,53.1-16.9Z" transform="translate(85.836 724.9)" fill="#cb6ee2"/></svg>