<svg xmlns="http://www.w3.org/2000/svg" width="353.98" height="597.924" viewBox="0 0 353.98 597.924"><circle cx="176.99" cy="176.99" r="176.99" fill="#9b8fef" style="mix-blend-mode:multiply;isolation:isolate"/><path d="M1020.55,323.19c37-16.59,71.55-12.11,88.14,24.88a73.422,73.422,0,1,1-134,60.06c-16.56-37,8.87-68.36,45.86-84.94Z" transform="translate(-406.37 -642.489) rotate(41)" fill="#00d39c" style="mix-blend-mode:multiply;isolation:isolate"/><path d="M70.607-1.634C82.453,31.93,82.7,72.528,64.313,85.238,45.927,98.072,9.154,83.14-15.649,62.533c-24.68-20.608-37.266-46.768-30.726-72.8,6.417-26.16,32.084-52.2,56.64-51.827C34.944-61.852,58.637-35.2,70.607-1.634Z" transform="translate(200.998 507.917)" fill="rgba(0,39,255,0.8)"/></svg>