<svg xmlns="http://www.w3.org/2000/svg" viewBox="0 0 1366 628"><g data-name="Layer 1"><circle cx="1418.78" cy="235.08" r="88.24" style="mix-blend-mode:multiply" fill="#00d39c"/><circle cx="1128.52" cy="373.25" r="53.49" style="mix-blend-mode:multiply" fill="#9b8fef"/><path d="M1020.55 323.19c37-16.59 71.55-12.11 88.14 24.88a73.41 73.41 0 1 1-134 60.06c-16.56-37 8.87-68.36 45.86-84.94z" style="mix-blend-mode:multiply" fill="#00d39c"/><path d="M995 232.68c22.69-33.83 92-27.12 125.8-4.43a73.75 73.75 0 1 1-82.16 122.49c-33.83-22.68-66.33-84.24-43.64-118.06zm343.09 264.74c22.69-33.82 92-27.11 125.8-4.42a73.75 73.75 0 1 1-82.16 122.49c-33.82-22.69-66.32-84.24-43.64-118.07z" style="mix-blend-mode:multiply" fill="#0ba3e0"/><circle cx="1330.54" cy="114.69" r="105.56" style="mix-blend-mode:multiply" fill="#9b8fef"/><circle cx="939.51" cy="581.04" r="30.04" style="mix-blend-mode:multiply" fill="#00d39c"/></g></svg>